SourceSansPro-Italic_1.ufo
<glyph name="Gamma" format="1">
  <advance width="504"/>
  <unicode hex="0393"/>
  <outline>
    <contour>
      <point x="26" y="0" type="line"/>
      <point x="186" y="0" type="line"/>
      <point x="288" y="516" type="line"/>
      <point x="532" y="516" type="line"/>
      <point x="558" y="650" type="line"/>
      <point x="156" y="650" type="line"/>
    </contour>
    <contour>
      <point x="253.0" y="672.0" type="move" name="aboveUC"/>
    </contour>
  </outline>
</glyph>
<glyph name="Omicron" format="1">
  <advance width="670"/>
  <unicode hex="039F"/>
  <outline>
    <component base="O"/>
    <contour>
      <point x="434.0" y="682.0" type="move" name="aboveUC"/>
    </contour>
    <contour>
      <point x="298.0" y="-22.0" type="move" name="belowLC"/>
    </contour>
    <contour>
      <point x="304.0" y="0.0" type="move" name="ogonekUC"/>
    </contour>
    <contour>
      <point x="534.0" y="644.0" type="move" name="hornLC"/>
    </contour>
  </outline>
</glyph>
<glyph name="Upsilon" format="1">
  <advance width="528"/>
  <unicode hex="03A5"/>
  <outline>
    <component base="Y"/>
    <contour>
      <point x="356.0" y="682.0" type="move" name="aboveUC"/>
    </contour>
    <contour>
      <point x="214.0" y="-30.0" type="move" name="belowLC"/>
    </contour>
  </outline>
</glyph>
<glyph name="Chi" format="1">
  <advance width="576"/>
  <unicode hex="03A7"/>
  <outline>
    <component base="X"/>
    <contour>
      <point x="386.0" y="682.0" type="move" name="aboveUC"/>
    </contour>
    <contour>
      <point x="290.0" y="-30.0" type="move" name="belowLC"/>
    </contour>
  </outline>
</glyph>
<glyph name="Omega" format="1">
  <advance width="686"/>
  <unicode hex="03A9"/>
  <outline>
    <contour>
      <point x="-8" y="0" type="line"/>
      <point x="258" y="0" type="line"/>
      <point x="278" y="104" type="line"/>
      <point x="247" y="148"/>
      <point x="230" y="212"/>
      <point x="230" y="282" type="curve" smooth="yes"/>
      <point x="230" y="428"/>
      <point x="302" y="524"/>
      <point x="398" y="524" type="curve" smooth="yes"/>
      <point x="460" y="524"/>
      <point x="498" y="474"/>
      <point x="498" y="396" type="curve" smooth="yes"/>
      <point x="498" y="290"/>
      <point x="453" y="188"/>
      <point x="354" y="104" type="curve"/>
      <point x="334" y="0" type="line"/>
      <point x="602" y="0" type="line"/>
      <point x="626" y="128" type="line"/>
      <point x="522" y="128" type="line"/>
      <point x="522" y="132" type="line"/>
      <point x="578" y="182"/>
      <point x="666" y="282"/>
      <point x="666" y="426" type="curve" smooth="yes"/>
      <point x="666" y="574"/>
      <point x="572" y="662"/>
      <point x="424" y="662" type="curve" smooth="yes"/>
      <point x="224" y="662"/>
      <point x="72" y="518"/>
      <point x="72" y="308" type="curve" smooth="yes"/>
      <point x="72" y="230"/>
      <point x="98" y="164"/>
      <point x="120" y="132" type="curve"/>
      <point x="120" y="128" type="line"/>
      <point x="16" y="128" type="line"/>
    </contour>
  </outline>
</glyph>
<glyph name="Acyr" format="1">
  <advance width="562"/>
  <outline>
    <component base="A"/>
    <contour>
      <point x="380.0" y="682.0" type="move" name="aboveUC"/>
    </contour>
    <contour>
      <point x="242.0" y="-22.0" type="move" name="belowLC"/>
    </contour>
    <contour>
      <point x="432.0" y="0.0" type="move" name="ogonekUC"/>
    </contour>
  </outline>
</glyph>
<glyph name="C" format="1">
  <advance width="574"/>
  <outline>
    <contour>
      <point x="310" y="-12" type="curve" smooth="yes"/>
      <point x="402" y="-12"/>
      <point x="474" y="36"/>
      <point x="510" y="70" type="curve"/>
      <point x="444" y="172" type="line"/>
      <point x="414" y="146"/>
      <point x="378" y="126"/>
      <point x="344" y="126" type="curve" smooth="yes"/>
      <point x="256" y="126"/>
      <point x="220" y="180"/>
      <point x="220" y="274" type="curve" smooth="yes"/>
      <point x="220" y="414"/>
      <point x="304" y="524"/>
      <point x="398" y="524" type="curve" smooth="yes"/>
      <point x="428" y="524"/>
      <point x="452" y="508"/>
      <point x="476" y="472" type="curve"/>
      <point x="584" y="556" type="line"/>
      <point x="546" y="624"/>
      <point x="482" y="662"/>
      <point x="406" y="662" type="curve" smooth="yes"/>
      <point x="214" y="662"/>
      <point x="56" y="496"/>
      <point x="56" y="264" type="curve" smooth="yes"/>
      <point x="56" y="88"/>
      <point x="158" y="-12"/>
    </contour>
    <contour>
      <point x="450" y="682" type="move" name="aboveUC"/>
    </contour>
    <contour>
      <point x="288" y="-22" type="move" name="belowLC"/>
    </contour>
    <contour>
      <point x="294" y="0" type="move" name="baseLC"/>
    </contour>
  </outline>
</glyph>
<glyph name="De" format="1">
  <advance width="630"/>
  <outline>
    <contour>
      <point x="-13" y="0" type="line"/>
      <point x="425" y="0" type="line"/>
      <point x="387" y="-192" type="line"/>
      <point x="521" y="-192" type="line"/>
      <point x="580" y="23" type="line"/>
      <point x="602" y="132" type="line"/>
      <point x="13" y="132" type="line"/>
    </contour>
    <contour>
      <point x="13" y="132" type="curve"/>
      <point x="-1" y="44" type="line"/>
      <point x="134" y="59"/>
      <point x="215" y="131"/>
      <point x="254" y="230" type="curve" smooth="yes"/>
      <point x="281" y="299"/>
      <point x="305" y="388"/>
      <point x="318" y="457" type="curve" smooth="yes"/>
      <point x="331" y="519" type="line"/>
      <point x="444" y="519" type="line"/>
      <point x="340" y="0" type="line"/>
      <point x="498" y="0" type="line"/>
      <point x="628" y="651" type="line"/>
      <point x="212" y="651" type="line"/>
      <point x="169" y="439" type="line" smooth="yes"/>
      <point x="158" y="380"/>
      <point x="141" y="317"/>
      <point x="116" y="258" type="curve" smooth="yes"/>
      <point x="90" y="196"/>
      <point x="55" y="148"/>
    </contour>
    <contour>
      <point x="-37" y="23" type="line"/>
      <point x="-63" y="-192" type="line"/>
      <point x="71" y="-192" type="line"/>
      <point x="109" y="0" type="line"/>
      <point x="557" y="0" type="line"/>
      <point x="584" y="132" type="line"/>
      <point x="-15" y="132" type="line"/>
    </contour>
  </outline>
</glyph>
<glyph name="Dze" format="1">
  <advance width="538"/>
  <outline>
    <component base="S"/>
    <contour>
      <point x="376.0" y="690.0" type="move" name="aboveUC"/>
    </contour>
    <contour>
      <point x="248.0" y="-30.0" type="move" name="belowLC"/>
    </contour>
    <contour>
      <point x="254.0" y="0.0" type="move" name="baseLC"/>
    </contour>
  </outline>
</glyph>
<glyph name="Dzhe" format="1">
  <advance width="660"/>
  <outline>
    <contour>
      <point x="664" y="650" type="line"/>
      <point x="504" y="650" type="line"/>
      <point x="402" y="134" type="line"/>
      <point x="212" y="134" type="line"/>
      <point x="316" y="650" type="line"/>
      <point x="156" y="650" type="line"/>
      <point x="26" y="0" type="line"/>
      <point x="214" y="0" type="line"/>
      <point x="176" y="-192" type="line"/>
      <point x="308" y="-192" type="line"/>
      <point x="362" y="0" type="line"/>
      <point x="534" y="0" type="line"/>
    </contour>
  </outline>
</glyph>
<glyph name="El" format="1">
  <advance width="660"/>
  <outline>
    <contour>
      <point x="-44" y="8" type="line"/>
      <point x="-24" y="-2"/>
      <point x="12" y="-12"/>
      <point x="58" y="-12" type="curve" smooth="yes"/>
      <point x="150" y="-12"/>
      <point x="228" y="38"/>
      <point x="284" y="184" type="curve" smooth="yes"/>
      <point x="310" y="252"/>
      <point x="334" y="356"/>
      <point x="348" y="430" type="curve" smooth="yes"/>
      <point x="364" y="516" type="line"/>
      <point x="478" y="516" type="line"/>
      <point x="374" y="0" type="line"/>
      <point x="534" y="0" type="line"/>
      <point x="664" y="650" type="line"/>
      <point x="246" y="650" type="line"/>
      <point x="202" y="426" type="line" smooth="yes"/>
      <point x="190" y="364"/>
      <point x="168" y="284"/>
      <point x="144" y="226" type="curve" smooth="yes"/>
      <point x="114" y="154"/>
      <point x="86" y="136"/>
      <point x="50" y="136" type="curve" smooth="yes"/>
      <point x="32" y="136"/>
      <point x="20" y="142"/>
      <point x="12" y="146" type="curve"/>
    </contour>
  </outline>
</glyph>
<glyph name="Eth" format="1">
  <advance width="644"/>
  <outline>
    <contour>
      <point x="34" y="300" type="line"/>
      <point x="378" y="300" type="line"/>
      <point x="394" y="376" type="line"/>
      <point x="121" y="376" type="line"/>
      <point x="48" y="370" type="line"/>
    </contour>
    <component base="D" xOffset="18"/>
  </outline>
</glyph>
<glyph name="F" format="1">
  <advance width="516"/>
  <outline>
    <contour>
      <point x="26" y="0" type="line"/>
      <point x="186" y="0" type="line"/>
      <point x="236" y="248" type="line"/>
      <point x="438" y="248" type="line"/>
      <point x="464" y="382" type="line"/>
      <point x="262" y="382" type="line"/>
      <point x="288" y="516" type="line"/>
      <point x="526" y="516" type="line"/>
      <point x="552" y="650" type="line"/>
      <point x="156" y="650" type="line"/>
    </contour>
    <contour>
      <point x="378" y="682" type="move" name="aboveUC"/>
    </contour>
    <contour>
      <point x="110" y="-22" type="move" name="belowLC"/>
    </contour>
  </outline>
</glyph>
<glyph name="Fita" format="1">
  <advance width="670"/>
  <outline>
    <contour>
      <point x="161" y="266" type="line"/>
      <point x="535" y="266" type="line"/>
      <point x="563" y="406" type="line"/>
      <point x="189" y="406" type="line"/>
    </contour>
    <contour>
      <point x="308" y="-12" type="curve" smooth="yes"/>
      <point x="480" y="-12"/>
      <point x="644" y="144"/>
      <point x="644" y="386" type="curve" smooth="yes"/>
      <point x="644" y="562"/>
      <point x="542" y="662"/>
      <point x="392" y="662" type="curve" smooth="yes"/>
      <point x="220" y="662"/>
      <point x="56" y="506"/>
      <point x="56" y="264" type="curve" smooth="yes"/>
      <point x="56" y="88"/>
      <point x="158" y="-12"/>
    </contour>
    <contour>
      <point x="386" y="530" type="curve" smooth="yes"/>
      <point x="456" y="530"/>
      <point x="486" y="480"/>
      <point x="486" y="376" type="curve" smooth="yes"/>
      <point x="486" y="226"/>
      <point x="404" y="120"/>
      <point x="314" y="120" type="curve" smooth="yes"/>
      <point x="244" y="120"/>
      <point x="214" y="170"/>
      <point x="214" y="274" type="curve" smooth="yes"/>
      <point x="214" y="424"/>
      <point x="296" y="530"/>
    </contour>
  </outline>
</glyph>
<glyph name="Gheup" format="1">
  <advance width="504"/>
  <outline>
    <contour>
      <point x="353" y="516" type="line"/>
      <point x="532" y="516" type="line"/>
      <point x="602" y="822" type="line"/>
      <point x="472" y="822" type="line"/>
      <point x="414" y="650" type="line"/>
      <point x="380" y="650" type="line"/>
    </contour>
    <component base="Gamma"/>
  </outline>
</glyph>
<glyph name="I" format="1">
  <advance width="310"/>
  <outline>
    <contour>
      <point x="26" y="0" type="line"/>
      <point x="186" y="0" type="line"/>
      <point x="316" y="650" type="line"/>
      <point x="156" y="650" type="line"/>
    </contour>
    <contour>
      <point x="248" y="682" type="move" name="aboveUC"/>
    </contour>
    <contour>
      <point x="110" y="-22" type="move" name="belowLC"/>
    </contour>
    <contour>
      <point x="102" y="0" type="move" name="ogonekUC"/>
    </contour>
  </outline>
</glyph>
<glyph name="Izhitsa" format="1">
  <advance width="562"/>
  <outline>
    <contour>
      <point x="132" y="0" type="line"/>
      <point x="330" y="0" type="line"/>
      <point x="531" y="453" type="line" smooth="yes"/>
      <point x="547" y="490"/>
      <point x="569" y="516"/>
      <point x="597" y="516" type="curve" smooth="yes"/>
      <point x="609" y="516"/>
      <point x="619" y="512"/>
      <point x="626" y="510" type="curve"/>
      <point x="682" y="651" type="line"/>
      <point x="663" y="659"/>
      <point x="647" y="663"/>
      <point x="610" y="663" type="curve" smooth="yes"/>
      <point x="512" y="663"/>
      <point x="450" y="610"/>
      <point x="397" y="483" type="curve" smooth="yes"/>
      <point x="344" y="356" type="line"/>
      <point x="313" y="285"/>
      <point x="290" y="219"/>
      <point x="262" y="148" type="curve"/>
      <point x="258" y="148" type="line"/>
      <point x="255" y="219"/>
      <point x="255" y="285"/>
      <point x="253" y="356" type="curve" smooth="yes"/>
      <point x="243" y="651" type="line"/>
      <point x="76" y="651" type="line"/>
    </contour>
  </outline>
</glyph>
<glyph name="Ka" format="1">
  <advance width="600"/>
  <outline>
    <contour>
      <point x="26" y="0" type="line"/>
      <point x="186" y="0" type="line"/>
      <point x="240" y="268" type="line"/>
      <point x="294" y="268" type="line"/>
      <point x="388" y="0" type="line"/>
      <point x="554" y="0" type="line"/>
      <point x="422" y="340" type="line"/>
      <point x="680" y="650" type="line"/>
      <point x="502" y="650" type="line"/>
      <point x="304" y="402" type="line"/>
      <point x="266" y="402" type="line"/>
      <point x="316" y="650" type="line"/>
      <point x="156" y="650" type="line"/>
    </contour>
    <contour>
      <point x="430.0" y="682.0" type="move" name="aboveUC"/>
    </contour>
  </outline>
</glyph>
<glyph name="Kabashkir" format="1">
  <advance width="702"/>
  <outline>
    <contour>
      <point x="430" y="650" type="line"/>
      <point x="106" y="650" type="line"/>
      <point x="80" y="516" type="line"/>
      <point x="244" y="516" type="line"/>
    </contour>
    <component base="Ka" xOffset="114"/>
  </outline>
</glyph>
<glyph name="N" format="1">
	<advance width="652"/>
	<outline>
		<contour>
			<point x="26" y="0" type="line"/>
			<point x="178" y="0" type="line"/>
			<point x="220" y="210" type="line" smooth="yes"/>
			<point x="236" y="288"/>
			<point x="242" y="380"/>
			<point x="248" y="454" type="curve"/>
			<point x="252" y="454" type="line"/>
			<point x="282" y="308" type="line"/>
			<point x="372" y="0" type="line"/>
			<point x="526" y="0" type="line"/>
			<point x="656" y="650" type="line"/>
			<point x="504" y="650" type="line"/>
			<point x="462" y="442" type="line" smooth="yes"/>
			<point x="446" y="364"/>
			<point x="442" y="266"/>
			<point x="436" y="196" type="curve"/>
			<point x="432" y="196" type="line"/>
			<point x="400" y="342" type="line"/>
			<point x="310" y="650" type="line"/>
			<point x="156" y="650" type="line"/>
		</contour>
		<contour>
			<point name="aboveUC" x="432" y="682" type="move"/>
		</contour>
		<contour>
			<point name="belowLC" x="308" y="-30" type="move"/>
		</contour>
	</outline>
</glyph>
<glyph name="Ohorn" format="1">
  <advance width="670"/>
  <outline>
    <contour>
      <point x="579" y="579" type="line"/>
      <point x="667.976046642" y="595.553683096"/>
      <point x="714" y="655"/>
      <point x="714" y="730" type="curve" smooth="yes"/>
      <point x="714" y="756"/>
      <point x="708" y="781"/>
      <point x="696" y="808" type="curve"/>
      <point x="578" y="772" type="line"/>
      <point x="585" y="755"/>
      <point x="590" y="738"/>
      <point x="590" y="722" type="curve" smooth="yes"/>
      <point x="590" y="681"/>
      <point x="566.916066262" y="639.330120709"/>
      <point x="511" y="633" type="curve"/>
    </contour>
    <component base="O"/>
    <contour>
      <point x="420" y="682" type="move" name="aboveUC"/>
    </contour>
    <contour>
      <point x="304" y="-22" type="move" name="belowLC"/>
    </contour>
  </outline>
</glyph>
<glyph name="Schwa" format="1">
  <advance width="680"/>
  <outline>
    <contour>
      <point x="308" y="-12" type="curve" smooth="yes"/>
      <point x="496" y="-12"/>
      <point x="656" y="156"/>
      <point x="656" y="402" type="curve" smooth="yes"/>
      <point x="656" y="570"/>
      <point x="568" y="672"/>
      <point x="408" y="672" type="curve" smooth="yes"/>
      <point x="312" y="672"/>
      <point x="242" y="638"/>
      <point x="188" y="590" type="curve"/>
      <point x="254" y="482" type="line"/>
      <point x="290" y="510"/>
      <point x="328" y="536"/>
      <point x="388" y="536" type="curve" smooth="yes"/>
      <point x="466" y="536"/>
      <point x="496" y="482"/>
      <point x="496" y="386" type="curve" smooth="yes"/>
      <point x="496" y="230"/>
      <point x="410" y="124"/>
      <point x="320" y="124" type="curve" smooth="yes"/>
      <point x="256" y="124"/>
      <point x="202" y="176"/>
      <point x="216" y="268" type="curve"/>
      <point x="512" y="268" type="line"/>
      <point x="536" y="384" type="line"/>
      <point x="90" y="384" type="line"/>
      <point x="74" y="334"/>
      <point x="66" y="300"/>
      <point x="66" y="248" type="curve" smooth="yes"/>
      <point x="66" y="88"/>
      <point x="158" y="-12"/>
    </contour>
    <contour>
      <point x="483" y="682" type="move" name="aboveUC"/>
    </contour>
    <contour>
      <point x="333" y="-22" type="move" name="belowLC"/>
    </contour>
  </outline>
</glyph>
<glyph name="Sha" format="1">
  <advance width="884"/>
  <outline>
    <contour>
      <point x="26" y="0" type="line"/>
      <point x="770" y="0" type="line"/>
      <point x="900" y="650" type="line"/>
      <point x="740" y="650" type="line"/>
      <point x="636" y="134" type="line"/>
      <point x="504" y="134" type="line"/>
      <point x="608" y="650" type="line"/>
      <point x="448" y="650" type="line"/>
      <point x="344" y="134" type="line"/>
      <point x="212" y="134" type="line"/>
      <point x="316" y="650" type="line"/>
      <point x="156" y="650" type="line"/>
    </contour>
  </outline>
</glyph>
<glyph name="Shcha" format="1">
  <advance width="910"/>
  <outline>
    <contour>
      <point x="669" y="0" type="line"/>
      <point x="694" y="0" type="line"/>
      <point x="660" y="-192" type="line"/>
      <point x="792" y="-192" type="line"/>
      <point x="852" y="22" type="line"/>
      <point x="874" y="132" type="line"/>
      <point x="695" y="132" type="line"/>
    </contour>
    <component base="Sha"/>
  </outline>
</glyph>
<glyph name="Tshe" format="1">
  <advance width="704"/>
  <outline>
    <contour>
      <point x="82" y="519" type="line"/>
      <point x="555" y="519" type="line"/>
      <point x="582" y="651" type="line"/>
      <point x="108" y="651" type="line"/>
    </contour>
    <contour>
      <point x="126" y="0" type="line"/>
      <point x="284" y="0" type="line"/>
      <point x="339" y="272" type="line"/>
      <point x="359" y="282"/>
      <point x="384" y="287"/>
      <point x="405" y="287" type="curve" smooth="yes"/>
      <point x="473" y="287"/>
      <point x="499" y="252"/>
      <point x="485" y="184" type="curve" smooth="yes"/>
      <point x="448" y="0" type="line"/>
      <point x="603" y="0" type="line"/>
      <point x="639" y="184" type="line" smooth="yes"/>
      <point x="671" y="343"/>
      <point x="586" y="412"/>
      <point x="447" y="412" type="curve" smooth="yes"/>
      <point x="420" y="412"/>
      <point x="395" y="408"/>
      <point x="364" y="397" type="curve"/>
      <point x="415" y="651" type="line"/>
      <point x="257" y="651" type="line"/>
    </contour>
  </outline>
</glyph>
<glyph name="Ya" format="1">
  <advance width="593"/>
  <outline>
    <contour>
      <point x="-28" y="0" type="line"/>
      <point x="148" y="0" type="line"/>
      <point x="333" y="269" type="line"/>
      <point x="246" y="372" type="line"/>
    </contour>
    <contour>
      <point x="320" y="0" type="line"/>
      <point x="478" y="0" type="line"/>
      <point x="608" y="651" type="line"/>
      <point x="382" y="651" type="line" smooth="yes"/>
      <point x="227" y="651"/>
      <point x="89" y="590"/>
      <point x="89" y="402" type="curve" smooth="yes"/>
      <point x="89" y="281"/>
      <point x="180" y="227"/>
      <point x="298" y="227" type="curve" smooth="yes"/>
      <point x="365" y="227" type="line"/>
    </contour>
    <contour>
      <point x="334" y="353" type="line" smooth="yes"/>
      <point x="276" y="353"/>
      <point x="246" y="378"/>
      <point x="246" y="425" type="curve" smooth="yes"/>
      <point x="246" y="499"/>
      <point x="286" y="526"/>
      <point x="369" y="526" type="curve" smooth="yes"/>
      <point x="425" y="526" type="line"/>
      <point x="390" y="353" type="line"/>
    </contour>
  </outline>
</glyph>
<glyph name="Yeru" format="1">
  <advance width="852"/>
  <outline>
    <contour>
      <point x="26" y="0" type="line"/>
      <point x="252" y="0" type="line" smooth="yes"/>
      <point x="404" y="0"/>
      <point x="542" y="69"/>
      <point x="542" y="246" type="curve" smooth="yes"/>
      <point x="542" y="350"/>
      <point x="466" y="420"/>
      <point x="330" y="420" type="curve" smooth="yes"/>
      <point x="270" y="420" type="line"/>
      <point x="316" y="650" type="line"/>
      <point x="156" y="650" type="line"/>
    </contour>
    <contour>
      <point x="210" y="126" type="line"/>
      <point x="244" y="294" type="line"/>
      <point x="296" y="294" type="line" smooth="yes"/>
      <point x="356" y="294"/>
      <point x="384" y="272"/>
      <point x="384" y="222" type="curve" smooth="yes"/>
      <point x="384" y="166"/>
      <point x="344" y="126"/>
      <point x="264" y="126" type="curve" smooth="yes"/>
    </contour>
    <contour>
      <point x="566" y="0" type="line"/>
      <point x="726" y="0" type="line"/>
      <point x="856" y="650" type="line"/>
      <point x="696" y="650" type="line"/>
    </contour>
  </outline>
</glyph>
<glyph name="Zhe" format="1">
  <advance width="856"/>
  <outline>
    <contour>
      <point x="-50" y="0" type="line"/>
      <point x="136" y="0" type="line"/>
      <point x="305" y="268" type="line"/>
      <point x="356" y="268" type="line"/>
      <point x="302" y="0" type="line"/>
      <point x="460" y="0" type="line"/>
      <point x="514" y="268" type="line"/>
      <point x="568" y="268" type="line"/>
      <point x="640" y="0" type="line"/>
      <point x="808" y="0" type="line"/>
      <point x="694" y="338" type="line"/>
      <point x="930" y="650" type="line"/>
      <point x="752" y="650" type="line"/>
      <point x="581" y="402" type="line"/>
      <point x="542" y="402" type="line"/>
      <point x="590" y="650" type="line"/>
      <point x="432" y="650" type="line"/>
      <point x="384" y="402" type="line"/>
      <point x="343" y="402" type="line"/>
      <point x="266" y="650" type="line"/>
      <point x="96" y="650" type="line"/>
      <point x="208" y="362" type="line"/>
    </contour>
    <contour>
      <point x="532.0" y="682.0" type="move" name="aboveUC"/>
    </contour>
  </outline>
</glyph>
<glyph name="acutecmb" format="1">
	<outline>
		<contour>
			<point x="96" y="578" type="line"/>
			<point x="313" y="718" type="line"/>
			<point x="218" y="840" type="line"/>
			<point x="27" y="668" type="line"/>
		</contour>
		<contour>
			<point name="_aboveLC" x="114" y="522" type="move"/>
		</contour>
	</outline>
</glyph>
<glyph name="ae" format="1">
  <advance width="752"/>
  <outline>
    <contour>
      <point x="18" y="114" type="curve" smooth="yes"/>
      <point x="18" y="38"/>
      <point x="76" y="-12"/>
      <point x="154" y="-12" type="curve" smooth="yes"/>
      <point x="226" y="-12"/>
      <point x="280" y="16"/>
      <point x="337" y="63" type="curve"/>
      <point x="366" y="22"/>
      <point x="426" y="-12"/>
      <point x="496" y="-12" type="curve" smooth="yes"/>
      <point x="572" y="-12"/>
      <point x="632" y="12"/>
      <point x="670" y="40" type="curve"/>
      <point x="614" y="140" type="line"/>
      <point x="592" y="124"/>
      <point x="558" y="108"/>
      <point x="532" y="108" type="curve" smooth="yes"/>
      <point x="476" y="108"/>
      <point x="434" y="136"/>
      <point x="436" y="202" type="curve"/>
      <point x="696" y="202" type="line"/>
      <point x="704" y="216"/>
      <point x="724" y="272"/>
      <point x="724" y="322" type="curve" smooth="yes"/>
      <point x="724" y="426"/>
      <point x="680" y="512"/>
      <point x="558" y="512" type="curve" smooth="yes"/>
      <point x="510" y="512"/>
      <point x="461" y="492"/>
      <point x="418" y="456" type="curve"/>
      <point x="393" y="494"/>
      <point x="352" y="512"/>
      <point x="296" y="512" type="curve" smooth="yes"/>
      <point x="228" y="512"/>
      <point x="160" y="492"/>
      <point x="98" y="462" type="curve"/>
      <point x="132" y="352" type="line"/>
      <point x="180" y="374"/>
      <point x="220" y="388"/>
      <point x="256" y="388" type="curve" smooth="yes"/>
      <point x="294" y="388"/>
      <point x="316" y="370"/>
      <point x="316" y="326" type="curve" smooth="yes"/>
      <point x="316" y="322"/>
      <point x="316" y="318"/>
      <point x="316" y="314" type="curve"/>
      <point x="154" y="310"/>
      <point x="18" y="262"/>
    </contour>
    <contour>
      <point x="448" y="298" type="line"/>
      <point x="468" y="362"/>
      <point x="504" y="390"/>
      <point x="538" y="390" type="curve" smooth="yes"/>
      <point x="580" y="390"/>
      <point x="594" y="364"/>
      <point x="594" y="330" type="curve" smooth="yes"/>
      <point x="594" y="318"/>
      <point x="592" y="312"/>
      <point x="590" y="298" type="curve"/>
    </contour>
    <contour>
      <point x="296" y="218" type="curve"/>
      <point x="294" y="194"/>
      <point x="296" y="176"/>
      <point x="298" y="158" type="curve"/>
      <point x="272" y="126"/>
      <point x="244" y="110"/>
      <point x="220" y="110" type="curve" smooth="yes"/>
      <point x="192" y="110"/>
      <point x="174" y="124"/>
      <point x="174" y="146" type="curve" smooth="yes"/>
      <point x="174" y="184"/>
      <point x="208" y="216"/>
    </contour>
  </outline>
</glyph>
<glyph name="b.sups" format="1">
	<advance width="374"/>
	<outline>
		<contour>
			<point x="128" y="368" type="line"/>
			<point x="144" y="402" type="line"/>
			<point x="148" y="402" type="line"/>
			<point x="160" y="377"/>
			<point x="184" y="360"/>
			<point x="212" y="360" type="curve" smooth="yes"/>
			<point x="304" y="360"/>
			<point x="390" y="460"/>
			<point x="390" y="586" type="curve" smooth="yes"/>
			<point x="390" y="664"/>
			<point x="354" y="708"/>
			<point x="296" y="708" type="curve" smooth="yes"/>
			<point x="264" y="708"/>
			<point x="230" y="690"/>
			<point x="206" y="668" type="curve"/>
			<point x="202" y="668" type="line"/>
			<point x="223" y="732" type="line"/>
			<point x="242" y="828" type="line"/>
			<point x="130" y="828" type="line"/>
			<point x="38" y="368" type="line"/>
		</contour>
		<contour>
			<point x="248" y="618" type="curve" smooth="yes"/>
			<point x="264" y="618"/>
			<point x="276" y="604"/>
			<point x="276" y="572" type="curve" smooth="yes"/>
			<point x="276" y="500"/>
			<point x="240" y="450"/>
			<point x="204" y="450" type="curve" smooth="yes"/>
			<point x="192" y="450"/>
			<point x="178" y="458"/>
			<point x="172" y="474" type="curve"/>
			<point x="190" y="576" type="line"/>
			<point x="208" y="610"/>
			<point x="230" y="618"/>
		</contour>
	</outline>
</glyph>
<glyph name="backslash" format="1">
  <advance width="324"/>
  <outline>
    <contour>
      <point x="144" y="-160" type="line"/>
      <point x="248" y="-160" type="line"/>
      <point x="186" y="710" type="line"/>
      <point x="84" y="710" type="line"/>
    </contour>
  </outline>
</glyph>
<glyph name="brevebelowcmb" format="1">
	<outline>
		<component base="brevecmb" xOffset="-160" yOffset="-790"/>
		<contour>
			<point name="_belowLC" x="-6" y="-30" type="move"/>
		</contour>
	</outline>
</glyph>
<glyph name="brevehoi" format="1">
	<outline>
		<contour>
			<point x="112" y="572" type="curve" smooth="yes"/>
			<point x="230" y="572"/>
			<point x="297" y="638"/>
			<point x="317" y="732" type="curve"/>
			<point x="234" y="748" type="line"/>
			<point x="218" y="702"/>
			<point x="184" y="668"/>
			<point x="130" y="668" type="curve" smooth="yes"/>
			<point x="76" y="668"/>
			<point x="56" y="702"/>
			<point x="58" y="748" type="curve"/>
			<point x="-31" y="732" type="line"/>
			<point x="-47" y="638"/>
			<point x="-5" y="572"/>
		</contour>
		<contour>
			<point x="99" y="703" type="line"/>
			<point x="171" y="711"/>
			<point x="231" y="731"/>
			<point x="244" y="801" type="curve" smooth="yes"/>
			<point x="255" y="859"/>
			<point x="227" y="900"/>
			<point x="106" y="904" type="curve"/>
			<point x="73" y="813" type="line"/>
			<point x="123" y="809"/>
			<point x="134" y="799"/>
			<point x="131" y="783" type="curve" smooth="yes"/>
			<point x="128" y="767"/>
			<point x="117" y="762"/>
			<point x="100" y="759" type="curve"/>
		</contour>
		<contour>
			<point name="_aboveLC" x="114" y="522" type="move"/>
		</contour>
	</outline>
</glyph>
<glyph name="brevetilde.cap" format="1">
	<outline>
		<contour>
			<point x="128" y="700" type="curve" smooth="yes"/>
			<point x="230" y="700"/>
			<point x="288" y="742"/>
			<point x="310" y="814" type="curve"/>
			<point x="232" y="828" type="line"/>
			<point x="218" y="802"/>
			<point x="193" y="780"/>
			<point x="142" y="780" type="curve" smooth="yes"/>
			<point x="90" y="780"/>
			<point x="73" y="802"/>
			<point x="68" y="828" type="curve"/>
			<point x="-14" y="814" type="line"/>
			<point x="-20" y="742"/>
			<point x="25" y="700"/>
		</contour>
		<contour>
			<point x="212" y="848" type="curve" smooth="yes"/>
			<point x="268" y="848"/>
			<point x="311" y="881"/>
			<point x="330" y="966" type="curve"/>
			<point x="252" y="976" type="line"/>
			<point x="244" y="950"/>
			<point x="232" y="940"/>
			<point x="216" y="940" type="curve" smooth="yes"/>
			<point x="194" y="940"/>
			<point x="170" y="982"/>
			<point x="118" y="982" type="curve" smooth="yes"/>
			<point x="62" y="982"/>
			<point x="18" y="949"/>
			<point x="0" y="864" type="curve"/>
			<point x="78" y="854" type="line"/>
			<point x="86" y="880"/>
			<point x="98" y="890"/>
			<point x="114" y="890" type="curve" smooth="yes"/>
			<point x="136" y="890"/>
			<point x="160" y="848"/>
		</contour>
		<contour>
			<point name="_aboveUC" x="136" y="682" type="move"/>
		</contour>
	</outline>
</glyph>
<glyph name="brevetilde" format="1">
  <advance width="0"/>
  <outline>
    <contour>
      <point x="116" y="572" type="curve" smooth="yes"/>
      <point x="222" y="572"/>
      <point x="276" y="624"/>
      <point x="294" y="688" type="curve"/>
      <point x="214" y="702" type="line"/>
      <point x="204" y="678"/>
      <point x="180" y="656"/>
      <point x="130" y="656" type="curve" smooth="yes"/>
      <point x="81" y="656"/>
      <point x="65" y="678"/>
      <point x="62" y="702" type="curve"/>
      <point x="-22" y="688" type="line"/>
      <point x="-28" y="624"/>
      <point x="10" y="572"/>
    </contour>
    <contour>
      <point x="196" y="716" type="curve" smooth="yes"/>
      <point x="253" y="716"/>
      <point x="299" y="750"/>
      <point x="324" y="836" type="curve"/>
      <point x="240" y="844" type="line"/>
      <point x="228" y="818"/>
      <point x="216" y="808"/>
      <point x="202" y="808" type="curve" smooth="yes"/>
      <point x="176" y="808"/>
      <point x="162" y="850"/>
      <point x="108" y="850" type="curve" smooth="yes"/>
      <point x="51" y="850"/>
      <point x="5" y="816"/>
      <point x="-18" y="730" type="curve"/>
      <point x="66" y="722" type="line"/>
      <point x="76" y="748"/>
      <point x="88" y="758"/>
      <point x="102" y="758" type="curve" smooth="yes"/>
      <point x="128" y="758"/>
      <point x="142" y="716"/>
    </contour>
    <contour>
      <point x="114" y="522" type="move" name="_aboveLC"/>
    </contour>
  </outline>
</glyph>
<glyph name="bullet" format="1">
  <advance width="344"/>
  <outline>
    <contour>
      <point x="160" y="120" type="curve" smooth="yes"/>
      <point x="248" y="120"/>
      <point x="306" y="202"/>
      <point x="306" y="278" type="curve" smooth="yes"/>
      <point x="306" y="352"/>
      <point x="254" y="404"/>
      <point x="184" y="404" type="curve" smooth="yes"/>
      <point x="96" y="404"/>
      <point x="38" y="322"/>
      <point x="38" y="246" type="curve" smooth="yes"/>
      <point x="38" y="172"/>
      <point x="90" y="120"/>
    </contour>
  </outline>
</glyph>
<glyph name="circumflexacute.cap" format="1">
  <advance width="0"/>
  <outline>
    <contour>
      <point x="28" y="680" type="line"/>
      <point x="132" y="752" type="line"/>
      <point x="136" y="752" type="line"/>
      <point x="216" y="680" type="line"/>
      <point x="290" y="724" type="line"/>
      <point x="220" y="828" type="line"/>
      <point x="72" y="828" type="line"/>
      <point x="-34" y="724" type="line"/>
    </contour>
    <contour>
      <point x="286" y="761" type="line"/>
      <point x="404" y="823" type="line"/>
      <point x="362" y="895" type="line"/>
      <point x="246" y="821" type="line"/>
    </contour>
    <contour>
      <point x="135.0" y="682.0" type="move" name="_aboveUC"/>
    </contour>
  </outline>
</glyph>
<glyph name="circumflexbreve" format="1">
  <advance width="0"/>
  <outline>
    <contour>
      <point x="32" y="562" type="line"/>
      <point x="124" y="622" type="line"/>
      <point x="128" y="622" type="line"/>
      <point x="200" y="562" type="line"/>
      <point x="266" y="598" type="line"/>
      <point x="206" y="690" type="line"/>
      <point x="70" y="690" type="line"/>
      <point x="-22" y="598" type="line"/>
    </contour>
    <contour>
      <point x="144" y="724" type="curve" smooth="yes"/>
      <point x="233" y="724"/>
      <point x="274" y="768"/>
      <point x="296" y="826" type="curve"/>
      <point x="238" y="846" type="line"/>
      <point x="222" y="822"/>
      <point x="206" y="802"/>
      <point x="158" y="802" type="curve" smooth="yes"/>
      <point x="110" y="802"/>
      <point x="98" y="822"/>
      <point x="90" y="846" type="curve"/>
      <point x="28" y="826" type="line"/>
      <point x="30" y="768"/>
      <point x="55" y="724"/>
    </contour>
    <contour>
      <point x="114" y="522" type="move" name="_aboveLC"/>
    </contour>
  </outline>
</glyph>
<glyph name="circumflexhoi" format="1">
  <advance width="0"/>
  <outline>
    <contour>
      <point x="16" y="564" type="line"/>
      <point x="132" y="630" type="line"/>
      <point x="136" y="630" type="line"/>
      <point x="224" y="564" type="line"/>
      <point x="286" y="620" type="line"/>
      <point x="212" y="716" type="line"/>
      <point x="76" y="716" type="line"/>
      <point x="-30" y="628" type="line"/>
    </contour>
    <contour>
      <point x="277" y="648" type="line"/>
      <point x="348" y="656"/>
      <point x="408" y="676"/>
      <point x="422" y="746" type="curve" smooth="yes"/>
      <point x="431" y="792"/>
      <point x="401" y="824"/>
      <point x="280" y="828" type="curve"/>
      <point x="250" y="758" type="line"/>
      <point x="300" y="754"/>
      <point x="311" y="744"/>
      <point x="308" y="728" type="curve" smooth="yes"/>
      <point x="305" y="712"/>
      <point x="294" y="707"/>
      <point x="278" y="704" type="curve"/>
    </contour>
    <contour>
      <point x="114" y="522" type="move" name="_aboveLC"/>
    </contour>
  </outline>
</glyph>
<glyph name="circumflextilde" format="1">
  <advance width="0"/>
  <outline>
    <contour>
      <point x="16" y="564" type="line"/>
      <point x="128" y="620" type="line"/>
      <point x="132" y="620" type="line"/>
      <point x="224" y="564" type="line"/>
      <point x="286" y="620" type="line"/>
      <point x="208" y="706" type="line"/>
      <point x="72" y="706" type="line"/>
      <point x="-30" y="628" type="line"/>
    </contour>
    <contour>
      <point x="200" y="718" type="curve" smooth="yes"/>
      <point x="252" y="718"/>
      <point x="293" y="752"/>
      <point x="316" y="838" type="curve"/>
      <point x="242" y="846" type="line"/>
      <point x="232" y="820"/>
      <point x="220" y="810"/>
      <point x="206" y="810" type="curve" smooth="yes"/>
      <point x="180" y="810"/>
      <point x="166" y="852"/>
      <point x="112" y="852" type="curve" smooth="yes"/>
      <point x="60" y="852"/>
      <point x="19" y="818"/>
      <point x="-6" y="732" type="curve"/>
      <point x="68" y="724" type="line"/>
      <point x="80" y="750"/>
      <point x="92" y="760"/>
      <point x="106" y="760" type="curve" smooth="yes"/>
      <point x="132" y="760"/>
      <point x="146" y="718"/>
    </contour>
    <contour>
      <point x="114" y="522" type="move" name="_aboveLC"/>
    </contour>
  </outline>
</glyph>
<glyph name="circumflextilde.cap" format="1">
  <advance width="0"/>
  <outline>
    <contour>
      <point x="26" y="680" type="line"/>
      <point x="130" y="742" type="line"/>
      <point x="134" y="742" type="line"/>
      <point x="214" y="680" type="line"/>
      <point x="290" y="724" type="line"/>
      <point x="218" y="818" type="line"/>
      <point x="70" y="818" type="line"/>
      <point x="-34" y="724" type="line"/>
    </contour>
    <contour>
      <point x="206" y="838" type="curve" smooth="yes"/>
      <point x="262" y="838"/>
      <point x="306" y="871"/>
      <point x="324" y="956" type="curve"/>
      <point x="246" y="966" type="line"/>
      <point x="238" y="940"/>
      <point x="226" y="930"/>
      <point x="210" y="930" type="curve" smooth="yes"/>
      <point x="188" y="930"/>
      <point x="166" y="972"/>
      <point x="114" y="972" type="curve" smooth="yes"/>
      <point x="58" y="972"/>
      <point x="14" y="939"/>
      <point x="-6" y="854" type="curve"/>
      <point x="74" y="844" type="line"/>
      <point x="82" y="870"/>
      <point x="94" y="880"/>
      <point x="110" y="880" type="curve" smooth="yes"/>
      <point x="132" y="880"/>
      <point x="154" y="838"/>
    </contour>
    <contour>
      <point x="135" y="682" type="move" name="_aboveUC"/>
    </contour>
  </outline>
</glyph>
<glyph name="dblgravecmb" format="1">
	<outline>
		<contour>
			<point x="-40" y="564" type="line"/>
			<point x="57" y="596" type="line"/>
			<point x="2" y="786" type="line"/>
			<point x="-121" y="746" type="line"/>
		</contour>
		<contour>
			<point x="150" y="564" type="line"/>
			<point x="247" y="596" type="line"/>
			<point x="192" y="786" type="line"/>
			<point x="69" y="746" type="line"/>
		</contour>
		<contour>
			<point name="_aboveLC" x="114" y="522" type="move"/>
		</contour>
	</outline>
</glyph>
<glyph name="dieresisbelowcmb" format="1">
  <advance width="0"/>
  <outline>
    <component base="dieresiscmb" xOffset="-158" yOffset="-786"/>
    <contour>
      <point x="-6" y="-30" type="move" name="_belowLC"/>
    </contour>
  </outline>
</glyph>
<glyph name="dotaccentcmb.cap" format="1">
  <advance width="0"/>
  <outline>
    <contour>
      <point x="130" y="698" type="curve" smooth="yes"/>
      <point x="184" y="698"/>
      <point x="226" y="736"/>
      <point x="226" y="788" type="curve" smooth="yes"/>
      <point x="226" y="836"/>
      <point x="184" y="862"/>
      <point x="142" y="862" type="curve" smooth="yes"/>
      <point x="88" y="862"/>
      <point x="46" y="820"/>
      <point x="46" y="772" type="curve" smooth="yes"/>
      <point x="46" y="722"/>
      <point x="88" y="698"/>
    </contour>
    <contour>
      <point x="136" y="682" type="move" name="_aboveUC"/>
    </contour>
  </outline>
</glyph>
<glyph name="dotlessi" format="1">
  <advance width="276"/>
  <outline>
    <contour>
      <point x="8" y="0" type="line"/>
      <point x="168" y="0" type="line"/>
      <point x="268" y="500" type="line"/>
      <point x="108" y="500" type="line"/>
    </contour>
    <contour>
      <point x="198" y="522" type="move" name="aboveLC"/>
    </contour>
    <contour>
      <point x="94" y="-22" type="move" name="belowLC"/>
    </contour>
    <contour>
      <point x="80" y="0" type="move" name="ogonekLC"/>
    </contour>
  </outline>
</glyph>
<glyph name="eacute.sups" format="1">
	<advance width="336"/>
	<outline>
		<contour>
			<point x="194" y="806" type="line"/>
			<point x="242" y="748" type="line"/>
			<point x="390" y="838" type="line"/>
			<point x="324" y="920" type="line"/>
		</contour>
		<component base="e.sups"/>
	</outline>
</glyph>
<glyph name="endash" format="1">
  <advance width="464"/>
  <outline>
    <contour>
      <point x="34" y="202" type="line"/>
      <point x="410" y="202" type="line"/>
      <point x="430" y="304" type="line"/>
      <point x="54" y="304" type="line"/>
    </contour>
  </outline>
</glyph>
<glyph name="eogonek" format="1">
	<advance width="502"/>
	<outline>
		<contour>
			<point x="166" y="-136" type="curve" smooth="yes"/>
			<point x="166" y="-186"/>
			<point x="204" y="-212"/>
			<point x="256" y="-212" type="curve" smooth="yes"/>
			<point x="292" y="-212"/>
			<point x="340" y="-194"/>
			<point x="370" y="-172" type="curve"/>
			<point x="344" y="-108" type="line"/>
			<point x="334" y="-114"/>
			<point x="324" y="-118"/>
			<point x="314" y="-118" type="curve" smooth="yes"/>
			<point x="296" y="-118"/>
			<point x="280" y="-108"/>
			<point x="280" y="-90" type="curve" smooth="yes"/>
			<point x="280" y="-62"/>
			<point x="298" y="-16"/>
			<point x="420" y="40" type="curve"/>
			<point x="364" y="140" type="line"/>
			<point x="342" y="124"/>
			<point x="308" y="108"/>
			<point x="280" y="108" type="curve" smooth="yes"/>
			<point x="222" y="108"/>
			<point x="178" y="136"/>
			<point x="176" y="202" type="curve"/>
			<point x="446" y="202" type="line"/>
			<point x="454" y="216"/>
			<point x="474" y="272"/>
			<point x="474" y="322" type="curve" smooth="yes"/>
			<point x="474" y="426"/>
			<point x="430" y="512"/>
			<point x="308" y="512" type="curve" smooth="yes"/>
			<point x="174" y="512"/>
			<point x="26" y="388"/>
			<point x="26" y="204" type="curve" smooth="yes"/>
			<point x="26" y="70"/>
			<point x="112" y="-12"/>
			<point x="236" y="-12" type="curve" smooth="yes"/>
			<point x="237" y="-12"/>
			<point x="239" y="-12"/>
			<point x="240" y="-12" type="curve"/>
			<point x="230" y="-22"/>
			<point x="166" y="-70"/>
		</contour>
		<contour>
			<point x="188" y="298" type="line"/>
			<point x="210" y="362"/>
			<point x="250" y="390"/>
			<point x="288" y="390" type="curve" smooth="yes"/>
			<point x="330" y="390"/>
			<point x="344" y="364"/>
			<point x="344" y="330" type="curve" smooth="yes"/>
			<point x="344" y="318"/>
			<point x="342" y="306"/>
			<point x="340" y="298" type="curve"/>
		</contour>
		<contour>
			<point name="aboveLC" x="326" y="522" type="move"/>
		</contour>
	</outline>
</glyph>
<glyph name="f_t" format="1">
	<advance width="684"/>
	<outline>
		<contour>
			<point x="34" y="0" type="line"/>
			<point x="194" y="0" type="line"/>
			<point x="298" y="520" type="line" smooth="yes"/>
			<point x="308" y="574"/>
			<point x="328" y="582"/>
			<point x="362" y="582" type="curve" smooth="yes"/>
			<point x="378" y="582"/>
			<point x="398" y="574"/>
			<point x="408" y="568" type="curve"/>
			<point x="458" y="680" type="line"/>
			<point x="424" y="698"/>
			<point x="384" y="708"/>
			<point x="344" y="708" type="curve" smooth="yes"/>
			<point x="218" y="708"/>
			<point x="158" y="618"/>
			<point x="138" y="514" type="curve" smooth="yes"/>
		</contour>
		<contour>
			<point x="510" y="-12" type="curve" smooth="yes"/>
			<point x="566" y="-12"/>
			<point x="608" y="0"/>
			<point x="636" y="10" type="curve"/>
			<point x="608" y="122" type="line"/>
			<point x="596" y="116"/>
			<point x="584" y="112"/>
			<point x="572" y="112" type="curve" smooth="yes"/>
			<point x="540" y="112"/>
			<point x="524" y="126"/>
			<point x="524" y="156" type="curve" smooth="yes"/>
			<point x="524" y="166"/>
			<point x="524" y="176"/>
			<point x="526" y="188" type="curve" smooth="yes"/>
			<point x="564" y="376" type="line"/>
			<point x="676" y="376" type="line"/>
			<point x="700" y="500" type="line"/>
			<point x="592" y="500" type="line"/>
			<point x="616" y="628" type="line"/>
			<point x="482" y="628" type="line"/>
			<point x="438" y="500" type="line"/>
			<point x="144" y="500" type="line"/>
			<point x="70" y="494" type="line"/>
			<point x="46" y="376" type="line"/>
			<point x="406" y="376" type="line"/>
			<point x="368" y="194" type="line" smooth="yes"/>
			<point x="363" y="172"/>
			<point x="360" y="150"/>
			<point x="360" y="128" type="curve" smooth="yes"/>
			<point x="360" y="46"/>
			<point x="404" y="-12"/>
		</contour>
	</outline>
</glyph>
<glyph name="fisheye" format="1">
	<advance width="870"/>
	<outline>
		<contour>
			<point x="450" y="-75" type="curve" smooth="yes"/>
			<point x="681" y="-75"/>
			<point x="855" y="95"/>
			<point x="855" y="330" type="curve" smooth="yes"/>
			<point x="855" y="565"/>
			<point x="681" y="735"/>
			<point x="450" y="735" type="curve" smooth="yes"/>
			<point x="219" y="735"/>
			<point x="45" y="565"/>
			<point x="45" y="330" type="curve" smooth="yes"/>
			<point x="45" y="95"/>
			<point x="219" y="-75"/>
		</contour>
		<contour>
			<point x="450" y="25" type="curve" smooth="yes"/>
			<point x="280" y="25"/>
			<point x="155" y="153"/>
			<point x="155" y="330" type="curve" smooth="yes"/>
			<point x="155" y="507"/>
			<point x="280" y="635"/>
			<point x="450" y="635" type="curve" smooth="yes"/>
			<point x="620" y="635"/>
			<point x="745" y="507"/>
			<point x="745" y="330" type="curve" smooth="yes"/>
			<point x="745" y="153"/>
			<point x="620" y="25"/>
		</contour>
		<contour>
			<point x="450" y="110" type="curve" smooth="yes"/>
			<point x="570" y="110"/>
			<point x="660" y="206"/>
			<point x="660" y="330" type="curve" smooth="yes"/>
			<point x="660" y="453"/>
			<point x="570" y="550"/>
			<point x="450" y="550" type="curve" smooth="yes"/>
			<point x="330" y="550"/>
			<point x="240" y="453"/>
			<point x="240" y="330" type="curve" smooth="yes"/>
			<point x="240" y="207"/>
			<point x="330" y="110"/>
		</contour>
	</outline>
</glyph>
<glyph name="four" format="1">
  <advance width="520"/>
  <outline>
    <contour>
      <point x="384" y="0" type="line"/>
      <point x="413" y="146" type="line"/>
      <point x="482" y="146" type="line"/>
      <point x="506" y="268" type="line"/>
      <point x="437" y="268" type="line"/>
      <point x="510" y="634" type="line"/>
      <point x="316" y="634" type="line"/>
      <point x="30" y="258" type="line"/>
      <point x="8" y="146" type="line"/>
      <point x="267" y="146" type="line"/>
      <point x="238" y="0" type="line"/>
    </contour>
    <contour>
      <point x="184" y="268" type="line"/>
      <point x="266" y="380" type="line" smooth="yes"/>
      <point x="292" y="417"/>
      <point x="314" y="460"/>
      <point x="338" y="500" type="curve"/>
      <point x="342" y="500" type="line"/>
      <point x="332" y="452"/>
      <point x="318" y="402"/>
      <point x="308" y="354" type="curve" smooth="yes"/>
      <point x="291" y="268" type="line"/>
    </contour>
  </outline>
</glyph>
<glyph name="four.tnum" format="1">
  <advance width="520"/>
  <outline>
    <contour>
      <point x="226" y="-80" type="line"/>
      <point x="372" y="-80" type="line"/>
      <point x="504" y="580" type="line"/>
      <point x="310" y="580" type="line"/>
      <point x="22" y="192" type="line"/>
      <point x="0" y="80" type="line"/>
      <point x="474" y="80" type="line"/>
      <point x="498" y="202" type="line"/>
      <point x="176" y="202" type="line"/>
      <point x="260" y="326" type="line" smooth="yes"/>
      <point x="286" y="363"/>
      <point x="308" y="406"/>
      <point x="332" y="446" type="curve"/>
      <point x="336" y="446" type="line"/>
      <point x="326" y="398"/>
      <point x="312" y="348"/>
      <point x="302" y="300" type="curve" smooth="yes"/>
    </contour>
  </outline>
</glyph>
<glyph name="fraction" format="1">
  <advance width="98"/>
  <outline>
    <contour>
      <point x="-216" y="-12" type="line"/>
      <point x="-126" y="-12" type="line"/>
      <point x="344" y="672" type="line"/>
      <point x="254" y="672" type="line"/>
    </contour>
  </outline>
</glyph>
<glyph name="g" format="1">
	<advance width="552"/>
	<outline>
		<contour>
			<point x="172" y="-208" type="curve" smooth="yes"/>
			<point x="318" y="-208"/>
			<point x="417" y="-134"/>
			<point x="448" y="20" type="curve" smooth="yes"/>
			<point x="544" y="500" type="line"/>
			<point x="414" y="500" type="line"/>
			<point x="392" y="450" type="line"/>
			<point x="390" y="450" type="line"/>
			<point x="372" y="488"/>
			<point x="330" y="512"/>
			<point x="288" y="512" type="curve" smooth="yes"/>
			<point x="150" y="512"/>
			<point x="28" y="372"/>
			<point x="28" y="194" type="curve" smooth="yes"/>
			<point x="28" y="76"/>
			<point x="90" y="20"/>
			<point x="174" y="20" type="curve" smooth="yes"/>
			<point x="226" y="20"/>
			<point x="278" y="44"/>
			<point x="320" y="88" type="curve"/>
			<point x="294" y="6" type="line" smooth="yes"/>
			<point x="275" y="-53"/>
			<point x="234" y="-82"/>
			<point x="176" y="-82" type="curve" smooth="yes"/>
			<point x="132" y="-82"/>
			<point x="90" y="-60"/>
			<point x="52" y="-32" type="curve"/>
			<point x="-16" y="-138" type="line"/>
			<point x="44" y="-186"/>
			<point x="116" y="-208"/>
		</contour>
		<contour>
			<point x="238" y="150" type="curve" smooth="yes"/>
			<point x="212" y="150"/>
			<point x="194" y="170"/>
			<point x="194" y="214" type="curve" smooth="yes"/>
			<point x="194" y="314"/>
			<point x="242" y="382"/>
			<point x="300" y="382" type="curve" smooth="yes"/>
			<point x="318" y="382"/>
			<point x="340" y="370"/>
			<point x="352" y="344" type="curve"/>
			<point x="326" y="206" type="line"/>
			<point x="300" y="160"/>
			<point x="266" y="150"/>
		</contour>
		<contour>
			<point name="aboveLC" x="324" y="522" type="move"/>
		</contour>
		<contour>
			<point name="belowLC" x="170" y="-228" type="move"/>
		</contour>
	</outline>
</glyph>
<glyph name="germandbls" format="1">
  <advance width="630"/>
  <outline>
    <contour>
      <point x="388" y="-12" type="curve" smooth="yes"/>
      <point x="496" y="-12"/>
      <point x="582" y="68"/>
      <point x="582" y="170" type="curve" smooth="yes"/>
      <point x="582" y="284"/>
      <point x="460" y="316"/>
      <point x="460" y="366" type="curve" smooth="yes"/>
      <point x="460" y="418"/>
      <point x="566" y="444"/>
      <point x="566" y="552" type="curve" smooth="yes"/>
      <point x="566" y="662"/>
      <point x="464" y="708"/>
      <point x="364" y="708" type="curve" smooth="yes"/>
      <point x="220" y="708"/>
      <point x="132" y="618"/>
      <point x="108" y="498" type="curve" smooth="yes"/>
      <point x="8" y="0" type="line"/>
      <point x="168" y="0" type="line"/>
      <point x="262" y="468" type="line" smooth="yes"/>
      <point x="276" y="531"/>
      <point x="308" y="582"/>
      <point x="358" y="582" type="curve" smooth="yes"/>
      <point x="396" y="582"/>
      <point x="412" y="562"/>
      <point x="412" y="528" type="curve" smooth="yes"/>
      <point x="412" y="448"/>
      <point x="304" y="424"/>
      <point x="304" y="338" type="curve" smooth="yes"/>
      <point x="304" y="236"/>
      <point x="434" y="210"/>
      <point x="434" y="154" type="curve" smooth="yes"/>
      <point x="434" y="126"/>
      <point x="416" y="106"/>
      <point x="386" y="106" type="curve" smooth="yes"/>
      <point x="354" y="106"/>
      <point x="326" y="120"/>
      <point x="302" y="136" type="curve"/>
      <point x="238" y="30" type="line"/>
      <point x="284" y="0"/>
      <point x="336" y="-12"/>
    </contour>
  </outline>
</glyph>
<glyph name="greater" format="1">
  <advance width="520"/>
  <outline>
    <contour>
      <point x="48" y="98" type="line"/>
      <point x="498" y="276" type="line"/>
      <point x="498" y="386" type="line"/>
      <point x="48" y="564" type="line"/>
      <point x="48" y="434" type="line"/>
      <point x="206" y="380" type="line"/>
      <point x="336" y="334" type="line"/>
      <point x="336" y="330" type="line"/>
      <point x="206" y="284" type="line"/>
      <point x="48" y="230" type="line"/>
    </contour>
  </outline>
</glyph>
<glyph name="greaterequal" format="1">
  <advance width="520"/>
  <outline>
    <contour>
      <point x="48" y="152" type="line"/>
      <point x="498" y="294" type="line"/>
      <point x="498" y="424" type="line"/>
      <point x="48" y="564" type="line"/>
      <point x="48" y="434" type="line"/>
      <point x="204" y="392" type="line"/>
      <point x="338" y="360" type="line"/>
      <point x="338" y="356" type="line"/>
      <point x="204" y="324" type="line"/>
      <point x="48" y="284" type="line"/>
    </contour>
    <contour>
      <point x="48" y="0" type="line"/>
      <point x="496" y="0" type="line"/>
      <point x="496" y="112" type="line"/>
      <point x="48" y="112" type="line"/>
    </contour>
  </outline>
</glyph>
<glyph name="guilsinglleft" format="1">
  <advance width="280"/>
  <outline>
    <contour>
      <point x="144" y="54" type="line"/>
      <point x="206" y="94" type="line"/>
      <point x="130" y="246" type="line"/>
      <point x="260" y="396" type="line"/>
      <point x="212" y="448" type="line"/>
      <point x="60" y="312" type="line"/>
      <point x="40" y="200" type="line"/>
    </contour>
  </outline>
</glyph>
<glyph name="hoicmb.cap" format="1">
	<outline>
		<contour>
			<point x="72" y="688" type="line"/>
			<point x="155" y="692"/>
			<point x="229" y="724"/>
			<point x="243" y="796" type="curve" smooth="yes"/>
			<point x="254" y="850"/>
			<point x="219" y="888"/>
			<point x="82" y="892" type="curve"/>
			<point x="45" y="808" type="line"/>
			<point x="103" y="804"/>
			<point x="121" y="794"/>
			<point x="118" y="778" type="curve" smooth="yes"/>
			<point x="115" y="762"/>
			<point x="96" y="757"/>
			<point x="73" y="754" type="curve"/>
		</contour>
		<contour>
			<point name="_aboveUC" x="136" y="682" type="move"/>
		</contour>
	</outline>
</glyph>
<glyph name="hoicmb" format="1">
  <advance width="0"/>
  <outline>
    <contour>
      <point x="59" y="566" type="line"/>
      <point x="141" y="570"/>
      <point x="218" y="602"/>
      <point x="232" y="674" type="curve" smooth="yes"/>
      <point x="246" y="748"/>
      <point x="211" y="802"/>
      <point x="65" y="806" type="curve"/>
      <point x="35" y="702" type="line"/>
      <point x="92" y="698"/>
      <point x="110" y="684"/>
      <point x="105" y="662" type="curve" smooth="yes"/>
      <point x="101" y="642"/>
      <point x="82" y="635"/>
      <point x="60" y="632" type="curve"/>
    </contour>
    <contour>
      <point x="114" y="522" type="move" name="_aboveLC"/>
    </contour>
    <contour>
      <point x="146" y="730" type="move" name="aboveLC"/>
    </contour>
  </outline>
</glyph>
<glyph name="iogonek.d" format="1">
  <advance width="276"/>
  <outline>
    <contour>
      <point x="52" y="-212" type="curve" smooth="yes"/>
      <point x="88" y="-212"/>
      <point x="136" y="-194"/>
      <point x="166" y="-172" type="curve"/>
      <point x="140" y="-108" type="line"/>
      <point x="130" y="-114"/>
      <point x="120" y="-118"/>
      <point x="110" y="-118" type="curve" smooth="yes"/>
      <point x="92" y="-118"/>
      <point x="76" y="-108"/>
      <point x="76" y="-90" type="curve" smooth="yes"/>
      <point x="76" y="-56"/>
      <point x="100" y="-22"/>
      <point x="168" y="0" type="curve"/>
      <point x="268" y="500" type="line"/>
      <point x="108" y="500" type="line"/>
      <point x="8" y="0" type="line"/>
      <point x="54" y="0" type="line"/>
      <point x="26" y="-18"/>
      <point x="-38" y="-70"/>
      <point x="-38" y="-136" type="curve" smooth="yes"/>
      <point x="-38" y="-186"/>
      <point x="0" y="-212"/>
    </contour>
    <contour>
      <point x="198" y="522" type="move" name="aboveLC"/>
    </contour>
  </outline>
</glyph>
<glyph name="k" format="1">
  <advance width="544"/>
  <outline>
    <contour>
      <point x="8" y="0" type="line"/>
      <point x="168" y="0" type="line"/>
      <point x="192" y="118" type="line"/>
      <point x="260" y="186" type="line"/>
      <point x="328" y="0" type="line"/>
      <point x="488" y="0" type="line"/>
      <point x="370" y="278" type="line"/>
      <point x="576" y="500" type="line"/>
      <point x="400" y="500" type="line"/>
      <point x="236" y="320" type="line"/>
      <point x="232" y="320" type="line"/>
      <point x="308" y="696" type="line"/>
      <point x="148" y="696" type="line"/>
    </contour>
    <contour>
      <point x="238" y="730" type="move" name="aboveLC"/>
    </contour>
    <contour>
      <point x="246" y="-22" type="move" name="belowLC"/>
    </contour>
  </outline>
</glyph>
<glyph name="k.sups" format="1">
  <advance width="367"/>
  <outline>
    <contour>
      <point x="38" y="368" type="line"/>
      <point x="150" y="368" type="line"/>
      <point x="166" y="448" type="line"/>
      <point x="208" y="488" type="line"/>
      <point x="253" y="368" type="line"/>
      <point x="364" y="368" type="line"/>
      <point x="283" y="551" type="line"/>
      <point x="422" y="700" type="line"/>
      <point x="300" y="700" type="line"/>
      <point x="196" y="582" type="line"/>
      <point x="192" y="582" type="line"/>
      <point x="242" y="828" type="line"/>
      <point x="130" y="828" type="line"/>
    </contour>
  </outline>
</glyph>
<glyph name="l.alt" format="1">
  <advance width="276"/>
  <outline>
    <contour>
      <point x="8" y="0" type="line"/>
      <point x="168" y="0" type="line"/>
      <point x="308" y="696" type="line"/>
      <point x="148" y="696" type="line"/>
    </contour>
    <contour>
      <point x="240" y="730" type="move" name="aboveLC"/>
    </contour>
    <contour>
      <point x="90" y="-22" type="move" name="belowLC"/>
    </contour>
  </outline>
</glyph>
<glyph name="less" format="1">
  <advance width="520"/>
  <outline>
    <contour>
      <point x="496" y="98" type="line"/>
      <point x="496" y="230" type="line"/>
      <point x="338" y="284" type="line"/>
      <point x="208" y="330" type="line"/>
      <point x="208" y="334" type="line"/>
      <point x="338" y="380" type="line"/>
      <point x="496" y="434" type="line"/>
      <point x="496" y="564" type="line"/>
      <point x="46" y="386" type="line"/>
      <point x="46" y="276" type="line"/>
    </contour>
  </outline>
</glyph>
<glyph name="lessequal" format="1">
  <advance width="520"/>
  <outline>
    <contour>
      <point x="496" y="152" type="line"/>
      <point x="496" y="284" type="line"/>
      <point x="342" y="324" type="line"/>
      <point x="208" y="356" type="line"/>
      <point x="208" y="360" type="line"/>
      <point x="342" y="392" type="line"/>
      <point x="496" y="434" type="line"/>
      <point x="496" y="564" type="line"/>
      <point x="46" y="424" type="line"/>
      <point x="46" y="294" type="line"/>
    </contour>
    <contour>
      <point x="48" y="0" type="line"/>
      <point x="496" y="0" type="line"/>
      <point x="496" y="112" type="line"/>
      <point x="48" y="112" type="line"/>
    </contour>
  </outline>
</glyph>
<glyph name="liraturkish" format="1">
	<advance width="520"/>
	<outline>
		<contour>
			<point x="270" y="135" type="curve"/>
			<point x="302" y="298" type="line"/>
			<point x="450" y="356" type="line"/>
			<point x="468" y="442" type="line"/>
			<point x="320" y="384" type="line"/>
			<point x="330" y="436" type="line"/>
			<point x="478" y="494" type="line"/>
			<point x="496" y="580" type="line"/>
			<point x="348" y="522" type="line"/>
			<point x="370" y="635" type="line"/>
			<point x="210" y="635" type="line"/>
			<point x="178" y="472" type="line"/>
			<point x="102" y="442" type="line"/>
			<point x="84" y="356" type="line"/>
			<point x="160" y="386" type="line"/>
			<point x="150" y="334" type="line"/>
			<point x="74" y="304" type="line"/>
			<point x="56" y="218" type="line"/>
			<point x="132" y="248" type="line"/>
			<point x="80" y="-12" type="line"/>
			<point x="320" y="-18"/>
			<point x="548" y="60"/>
			<point x="548" y="316" type="curve"/>
			<point x="412" y="286" type="line"/>
			<point x="406" y="202"/>
			<point x="350" y="146"/>
		</contour>
	</outline>
</glyph>
<glyph name="macroncmb" format="1">
	<outline>
		<contour>
			<point x="-32" y="590" type="line"/>
			<point x="262" y="590" type="line"/>
			<point x="282" y="690" type="line"/>
			<point x="-12" y="690" type="line"/>
		</contour>
		<contour>
			<point name="_aboveLC" x="114" y="522" type="move"/>
		</contour>
	</outline>
</glyph>
<glyph name="minus" format="1">
  <advance width="520"/>
  <outline>
    <contour>
      <point x="48" y="274" type="line"/>
      <point x="496" y="274" type="line"/>
      <point x="496" y="386" type="line"/>
      <point x="48" y="386" type="line"/>
    </contour>
  </outline>
</glyph>
<glyph name="mu.math" format="1">
	<advance width="554"/>
	<outline>
		<contour>
			<point x="266" y="500" type="line"/>
			<point x="106" y="500" type="line"/>
			<point x="-28" y="-176" type="line"/>
			<point x="131" y="-176" type="line"/>
			<point x="158" y="-38" type="line"/>
			<point x="164" y="14" type="line"/>
			<point x="174" y="0"/>
			<point x="194" y="-4"/>
			<point x="216" y="-4" type="curve" smooth="yes"/>
			<point x="252" y="-4"/>
			<point x="290" y="26"/>
			<point x="314" y="64" type="curve"/>
			<point x="318" y="64" type="line"/>
			<point x="318" y="0" type="line"/>
			<point x="448" y="0" type="line"/>
			<point x="544" y="500" type="line"/>
			<point x="386" y="500" type="line"/>
			<point x="324" y="179" type="line"/>
			<point x="292" y="142"/>
			<point x="268" y="124"/>
			<point x="242" y="124" type="curve" smooth="yes"/>
			<point x="216" y="124"/>
			<point x="200" y="138"/>
			<point x="200" y="166" type="curve" smooth="yes"/>
			<point x="200" y="178"/>
			<point x="204" y="192"/>
			<point x="208" y="210" type="curve" smooth="yes"/>
		</contour>
	</outline>
</glyph>
<glyph name="n.sups" format="1">
  <advance width="376"/>
  <outline>
    <contour>
      <point x="38" y="368" type="line"/>
      <point x="150" y="368" type="line"/>
      <point x="191" y="578" type="line"/>
      <point x="213" y="602"/>
      <point x="229" y="614"/>
      <point x="247" y="614" type="curve" smooth="yes"/>
      <point x="263" y="614"/>
      <point x="272" y="605"/>
      <point x="272" y="587" type="curve" smooth="yes"/>
      <point x="272" y="580"/>
      <point x="271" y="571"/>
      <point x="268" y="559" type="curve" smooth="yes"/>
      <point x="230" y="368" type="line"/>
      <point x="342" y="368" type="line"/>
      <point x="383" y="573" type="line"/>
      <point x="385" y="587"/>
      <point x="389" y="604"/>
      <point x="389" y="619" type="curve" smooth="yes"/>
      <point x="389" y="676"/>
      <point x="363" y="708"/>
      <point x="308" y="708" type="curve" smooth="yes"/>
      <point x="265" y="708"/>
      <point x="228" y="684"/>
      <point x="198" y="656" type="curve"/>
      <point x="194" y="656" type="line"/>
      <point x="194" y="700" type="line"/>
      <point x="104" y="700" type="line"/>
    </contour>
  </outline>
</glyph>
<glyph name="ohorntilde" format="1">
  <advance width="546"/>
  <outline>
    <contour>
      <point x="350" y="572" type="curve" smooth="yes"/>
      <point x="418" y="572"/>
      <point x="468.041257417" y="617.259004898"/>
      <point x="486" y="730" type="curve"/>
      <point x="388" y="736" type="line"/>
      <point x="382.016193147" y="700.097158885"/>
      <point x="368.315789474" y="690.0"/>
      <point x="354" y="690" type="curve" smooth="yes"/>
      <point x="317.771929825" y="690.0"/>
      <point x="294" y="746"/>
      <point x="236" y="746" type="curve" smooth="yes"/>
      <point x="168" y="746"/>
      <point x="118" y="701"/>
      <point x="100" y="588" type="curve"/>
      <point x="198" y="582" type="line"/>
      <point x="203.983806853" y="617.902841115"/>
      <point x="217.684210526" y="628.0"/>
      <point x="232" y="628" type="curve" smooth="yes"/>
      <point x="268.228070175" y="628.0"/>
      <point x="292" y="572"/>
    </contour>
    <component base="ohorn"/>
  </outline>
</glyph>
<glyph name="one.onum" format="1">
  <advance width="388"/>
  <outline>
    <contour>
      <point x="88" y="0" type="line"/>
      <point x="248" y="0" type="line"/>
      <point x="364" y="580" type="line"/>
      <point x="246" y="580" type="line"/>
      <point x="196" y="550"/>
      <point x="150" y="532"/>
      <point x="76" y="520" type="curve"/>
      <point x="56" y="420" type="line"/>
      <point x="172" y="420" type="line"/>
    </contour>
  </outline>
</glyph>
<glyph name="one.tnum" format="1">
  <advance width="520"/>
  <outline>
    <contour>
      <point x="16" y="0" type="line"/>
      <point x="416" y="0" type="line"/>
      <point x="442" y="128" type="line"/>
      <point x="330" y="128" type="line"/>
      <point x="420" y="580" type="line"/>
      <point x="302" y="580" type="line"/>
      <point x="252" y="550"/>
      <point x="206" y="532"/>
      <point x="132" y="520" type="curve"/>
      <point x="112" y="420" type="line"/>
      <point x="228" y="420" type="line"/>
      <point x="170" y="128" type="line"/>
      <point x="42" y="128" type="line"/>
    </contour>
  </outline>
</glyph>
<glyph name="period.dnom" format="1">
  <advance width="210"/>
  <outline>
    <contour>
      <point x="54" y="-8" type="curve" smooth="yes"/>
      <point x="98" y="-8"/>
      <point x="130" y="26"/>
      <point x="130" y="70" type="curve" smooth="yes"/>
      <point x="130" y="102"/>
      <point x="108" y="126"/>
      <point x="74" y="126" type="curve" smooth="yes"/>
      <point x="30" y="126"/>
      <point x="-2" y="92"/>
      <point x="-2" y="48" type="curve" smooth="yes"/>
      <point x="-2" y="16"/>
      <point x="20" y="-8"/>
    </contour>
  </outline>
</glyph>
<glyph name="peso" format="1">
	<advance width="520"/>
	<outline>
		<contour>
			<point x="6" y="0" type="line"/>
			<point x="156" y="0" type="line"/>
			<point x="198" y="206" type="line"/>
			<point x="228" y="206" type="line" smooth="yes"/>
			<point x="362" y="206"/>
			<point x="498" y="288"/>
			<point x="498" y="476" type="curve" smooth="yes"/>
			<point x="498" y="600"/>
			<point x="418" y="644"/>
			<point x="314" y="644" type="curve" smooth="yes"/>
			<point x="136" y="644" type="line"/>
		</contour>
		<contour>
			<point x="218" y="306" type="line"/>
			<point x="266" y="544" type="line"/>
			<point x="288" y="544" type="line" smooth="yes"/>
			<point x="328" y="544"/>
			<point x="350" y="520"/>
			<point x="350" y="464" type="curve" smooth="yes"/>
			<point x="350" y="372"/>
			<point x="310" y="306"/>
			<point x="240" y="306" type="curve" smooth="yes"/>
		</contour>
		<contour>
			<point x="18" y="340" type="line"/>
			<point x="524" y="340" type="line"/>
			<point x="536" y="402" type="line"/>
			<point x="104" y="402" type="line"/>
			<point x="30" y="396" type="line"/>
		</contour>
		<contour>
			<point x="40" y="446" type="line"/>
			<point x="546" y="446" type="line"/>
			<point x="558" y="508" type="line"/>
			<point x="126" y="508" type="line"/>
			<point x="52" y="502" type="line"/>
		</contour>
	</outline>
</glyph>
<glyph name="pi" format="1">
	<advance width="620"/>
	<outline>
		<contour>
			<point x="461" y="-12" type="curve" smooth="yes"/>
			<point x="496" y="-12"/>
			<point x="524" y="-4"/>
			<point x="543" y="3" type="curve"/>
			<point x="547" y="119" type="line"/>
			<point x="538" y="117"/>
			<point x="532" y="115"/>
			<point x="525" y="115" type="curve" smooth="yes"/>
			<point x="503" y="115"/>
			<point x="490" y="123"/>
			<point x="490" y="147" type="curve" smooth="yes"/>
			<point x="490" y="162"/>
			<point x="516" y="286"/>
			<point x="540" y="376" type="curve"/>
			<point x="616" y="376" type="line"/>
			<point x="640" y="500" type="line"/>
			<point x="150" y="500" type="line"/>
			<point x="76" y="494" type="line"/>
			<point x="52" y="376" type="line"/>
			<point x="146" y="376" type="line"/>
			<point x="125" y="270"/>
			<point x="90" y="134"/>
			<point x="46" y="0" type="curve"/>
			<point x="202" y="-12" type="line"/>
			<point x="236" y="118"/>
			<point x="269" y="260"/>
			<point x="292" y="376" type="curve"/>
			<point x="390" y="376" type="line"/>
			<point x="370" y="288"/>
			<point x="337" y="172"/>
			<point x="337" y="114" type="curve" smooth="yes"/>
			<point x="337" y="38"/>
			<point x="371" y="-12"/>
		</contour>
	</outline>
</glyph>
<glyph name="plus" format="1">
  <advance width="520"/>
  <outline>
    <contour>
      <point x="212" y="92" type="line"/>
      <point x="328" y="92" type="line"/>
      <point x="328" y="274" type="line"/>
      <point x="496" y="274" type="line"/>
      <point x="496" y="386" type="line"/>
      <point x="330" y="386" type="line"/>
      <point x="330" y="568" type="line"/>
      <point x="214" y="568" type="line"/>
      <point x="214" y="386" type="line"/>
      <point x="48" y="386" type="line"/>
      <point x="48" y="274" type="line"/>
      <point x="212" y="274" type="line"/>
    </contour>
  </outline>
</glyph>
<glyph name="product" format="1">
  <advance width="694"/>
  <outline>
    <contour>
      <point x="84" y="-120" type="line"/>
      <point x="244" y="-120" type="line"/>
      <point x="244" y="494" type="line"/>
      <point x="470" y="494" type="line"/>
      <point x="470" y="-120" type="line"/>
      <point x="630" y="-120" type="line"/>
      <point x="630" y="634" type="line"/>
      <point x="84" y="634" type="line"/>
    </contour>
  </outline>
</glyph>
<glyph name="quoteleft" format="1">
	<advance width="310"/>
	<outline>
		<contour>
			<point x="174" y="324" type="curve" smooth="yes"/>
			<point x="232" y="324"/>
			<point x="268" y="368"/>
			<point x="268" y="416" type="curve" smooth="yes"/>
			<point x="268" y="460"/>
			<point x="234" y="486"/>
			<point x="188" y="486" type="curve" smooth="yes"/>
			<point x="172" y="486"/>
			<point x="156" y="478"/>
			<point x="142" y="468" type="curve"/>
			<point x="172" y="396" type="line"/>
			<point x="182" y="484" type="line"/>
			<point x="182" y="514"/>
			<point x="225" y="577"/>
			<point x="304" y="604" type="curve"/>
			<point x="280" y="672" type="line"/>
			<point x="180" y="644"/>
			<point x="92" y="562"/>
			<point x="92" y="432" type="curve" smooth="yes"/>
			<point x="92" y="364"/>
			<point x="124" y="324"/>
		</contour>
	</outline>
</glyph>
<glyph name="ringcmb" format="1">
  <advance width="0"/>
  <outline>
    <contour>
      <point x="118" y="570" type="curve" smooth="yes"/>
      <point x="206.763888889" y="570.0"/>
      <point x="272.0" y="620.0"/>
      <point x="272" y="686" type="curve" smooth="yes"/>
      <point x="272.0" y="744.0"/>
      <point x="222.090909091" y="778.0"/>
      <point x="150" y="778" type="curve" smooth="yes"/>
      <point x="61.2361111111" y="778.0"/>
      <point x="-4.0" y="728.0"/>
      <point x="-4" y="662" type="curve" smooth="yes"/>
      <point x="-4.0" y="604.0"/>
      <point x="46.8333333333" y="570.0"/>
    </contour>
    <contour>
      <point x="128" y="630" type="curve" smooth="yes"/>
      <point x="106.352941176" y="630.0"/>
      <point x="96.0" y="646.0"/>
      <point x="96" y="666" type="curve" smooth="yes"/>
      <point x="96.0" y="694.0"/>
      <point x="115.904761905" y="718.0"/>
      <point x="140" y="718" type="curve" smooth="yes"/>
      <point x="161.647058824" y="718.0"/>
      <point x="172.0" y="700.0"/>
      <point x="172" y="682" type="curve" smooth="yes"/>
      <point x="172.0" y="654.0"/>
      <point x="152.095238095" y="630.0"/>
    </contour>
    <contour>
      <point x="114" y="522" type="move" name="_aboveLC"/>
    </contour>
  </outline>
</glyph>
<glyph name="ringhalfrightmod" format="1">
  <advance width="152"/>
  <outline>
    <contour>
      <point x="92" y="548" type="line"/>
      <point x="192" y="548"/>
      <point x="244" y="600"/>
      <point x="244" y="668" type="curve" smooth="yes"/>
      <point x="244" y="722"/>
      <point x="212" y="760"/>
      <point x="134" y="756" type="curve"/>
      <point x="122" y="698" type="line"/>
      <point x="154" y="698"/>
      <point x="168" y="682"/>
      <point x="168" y="660" type="curve" smooth="yes"/>
      <point x="168" y="634"/>
      <point x="148" y="610"/>
      <point x="104" y="608" type="curve"/>
    </contour>
  </outline>
</glyph>
<glyph name="seven" format="1">
  <advance width="520"/>
  <outline>
    <contour>
      <point x="92" y="0" type="curve"/>
      <point x="256" y="0" type="line"/>
      <point x="294" y="174"/>
      <point x="346" y="362"/>
      <point x="534" y="534" type="curve"/>
      <point x="554" y="634" type="line"/>
      <point x="122" y="634" type="line"/>
      <point x="96" y="500" type="line"/>
      <point x="350" y="500" type="line"/>
      <point x="226" y="376"/>
      <point x="152" y="214"/>
    </contour>
  </outline>
</glyph>
<glyph name="seven.pnum" format="1">
  <advance width="490"/>
  <outline>
    <contour>
      <point x="80" y="0" type="curve"/>
      <point x="244" y="0" type="line"/>
      <point x="282" y="174"/>
      <point x="334" y="362"/>
      <point x="512" y="534" type="curve"/>
      <point x="532" y="634" type="line"/>
      <point x="110" y="634" type="line"/>
      <point x="84" y="500" type="line"/>
      <point x="328" y="500" type="line"/>
      <point x="212" y="376"/>
      <point x="140" y="214"/>
    </contour>
  </outline>
</glyph>
<glyph name="six" format="1">
	<advance width="520"/>
	<outline>
		<contour>
			<point x="256" y="-12" type="curve" smooth="yes"/>
			<point x="392" y="-12"/>
			<point x="486" y="111"/>
			<point x="486" y="234" type="curve" smooth="yes"/>
			<point x="486" y="351"/>
			<point x="416" y="400"/>
			<point x="328" y="400" type="curve" smooth="yes"/>
			<point x="295" y="400"/>
			<point x="241" y="378"/>
			<point x="207" y="340" type="curve"/>
			<point x="192" y="228" type="line"/>
			<point x="228" y="276"/>
			<point x="258" y="292"/>
			<point x="284" y="292" type="curve" smooth="yes"/>
			<point x="320" y="292"/>
			<point x="340" y="266"/>
			<point x="340" y="221" type="curve" smooth="yes"/>
			<point x="340" y="174"/>
			<point x="318" y="106"/>
			<point x="264" y="106" type="curve" smooth="yes"/>
			<point x="226" y="106"/>
			<point x="198" y="138"/>
			<point x="198" y="201" type="curve" smooth="yes"/>
			<point x="198" y="422"/>
			<point x="276" y="518"/>
			<point x="366" y="518" type="curve" smooth="yes"/>
			<point x="400" y="518"/>
			<point x="422" y="498"/>
			<point x="440" y="472" type="curve"/>
			<point x="540" y="556" type="line"/>
			<point x="512" y="594"/>
			<point x="460" y="646"/>
			<point x="376" y="646" type="curve" smooth="yes"/>
			<point x="186" y="646"/>
			<point x="50" y="478"/>
			<point x="50" y="218" type="curve" smooth="yes"/>
			<point x="50" y="81"/>
			<point x="130" y="-12"/>
		</contour>
	</outline>
</glyph>
<glyph name="squareshadow" format="1">
	<advance width="870"/>
	<outline>
		<contour>
			<point x="60" y="-60" type="line"/>
			<point x="760" y="-60" type="line"/>
			<point x="840" y="30" type="line"/>
			<point x="840" y="720" type="line"/>
			<point x="150" y="720" type="line"/>
			<point x="60" y="640" type="line"/>
		</contour>
		<contour>
			<point x="134" y="14" type="line"/>
			<point x="134" y="616" type="line"/>
			<point x="736" y="616" type="line"/>
			<point x="736" y="14" type="line"/>
		</contour>
	</outline>
</glyph>
<glyph name="summation" format="1">
  <advance width="522"/>
  <outline>
    <contour>
      <point x="36" y="-120" type="line"/>
      <point x="520" y="-120" type="line"/>
      <point x="520" y="14" type="line"/>
      <point x="239" y="14" type="line"/>
      <point x="238" y="18" type="line"/>
      <point x="388" y="258" type="line"/>
      <point x="243" y="496" type="line"/>
      <point x="242" y="500" type="line"/>
      <point x="500" y="500" type="line"/>
      <point x="500" y="634" type="line"/>
      <point x="48" y="634" type="line"/>
      <point x="48" y="540" type="line"/>
      <point x="228" y="270" type="line"/>
      <point x="36" y="-28" type="line"/>
    </contour>
  </outline>
</glyph>
<glyph name="tildecmb.cap" format="1">
  <advance width="0"/>
  <outline>
    <contour>
      <point x="188" y="686" type="curve" smooth="yes"/>
      <point x="261" y="686"/>
      <point x="324" y="728"/>
      <point x="350" y="838" type="curve"/>
      <point x="242" y="846" type="line"/>
      <point x="232" y="812"/>
      <point x="218" y="804"/>
      <point x="202" y="804" type="curve" smooth="yes"/>
      <point x="174" y="804"/>
      <point x="146" y="856"/>
      <point x="76" y="856" type="curve" smooth="yes"/>
      <point x="3" y="856"/>
      <point x="-60" y="814"/>
      <point x="-86" y="704" type="curve"/>
      <point x="22" y="696" type="line"/>
      <point x="32" y="730"/>
      <point x="46" y="738"/>
      <point x="62" y="738" type="curve" smooth="yes"/>
      <point x="90" y="738"/>
      <point x="118" y="686"/>
    </contour>
    <contour>
      <point x="136" y="682" type="move" name="_aboveUC"/>
    </contour>
  </outline>
</glyph>
<glyph name="tildecmb" format="1">
  <advance width="0"/>
  <outline>
    <contour>
      <point x="188" y="572" type="curve" smooth="yes"/>
      <point x="263" y="572"/>
      <point x="320" y="617"/>
      <point x="338" y="730" type="curve"/>
      <point x="234" y="736" type="line"/>
      <point x="228" y="700"/>
      <point x="212" y="690"/>
      <point x="196" y="690" type="curve" smooth="yes"/>
      <point x="158" y="690"/>
      <point x="137" y="746"/>
      <point x="72" y="746" type="curve" smooth="yes"/>
      <point x="-3" y="746"/>
      <point x="-60" y="701"/>
      <point x="-78" y="588" type="curve"/>
      <point x="26" y="582" type="line"/>
      <point x="32" y="618"/>
      <point x="48" y="628"/>
      <point x="64" y="628" type="curve" smooth="yes"/>
      <point x="102" y="628"/>
      <point x="123" y="572"/>
    </contour>
    <contour>
      <point x="114" y="522" type="move" name="_aboveLC"/>
    </contour>
  </outline>
</glyph>
<glyph name="trianglewhitedown" format="1">
	<advance width="870"/>
	<outline>
		<contour>
			<point x="840" y="720" type="line"/>
			<point x="60" y="720" type="line"/>
			<point x="60" y="718" type="line"/>
			<point x="448" y="-80" type="line"/>
			<point x="452" y="-80" type="line"/>
			<point x="840" y="718" type="line"/>
		</contour>
		<contour>
			<point x="655" y="610" type="line"/>
			<point x="450" y="165" type="line"/>
			<point x="245" y="610" type="line"/>
		</contour>
	</outline>
</glyph>
<glyph name="two.onum" format="1">
  <advance width="486"/>
  <outline>
    <contour>
      <point x="-14" y="0" type="line"/>
      <point x="398" y="0" type="line"/>
      <point x="424" y="134" type="line"/>
      <point x="250" y="134" type="line"/>
      <point x="366" y="236"/>
      <point x="456" y="314"/>
      <point x="456" y="416" type="curve" smooth="yes"/>
      <point x="456" y="522"/>
      <point x="382" y="592"/>
      <point x="270" y="592" type="curve" smooth="yes"/>
      <point x="206" y="592"/>
      <point x="142" y="563"/>
      <point x="80" y="512" type="curve"/>
      <point x="156" y="420" type="line"/>
      <point x="190" y="446"/>
      <point x="216" y="466"/>
      <point x="250" y="466" type="curve" smooth="yes"/>
      <point x="280" y="466"/>
      <point x="300" y="440"/>
      <point x="300" y="400" type="curve" smooth="yes"/>
      <point x="300" y="312"/>
      <point x="172" y="222"/>
      <point x="4" y="90" type="curve"/>
    </contour>
  </outline>
</glyph>
<glyph name="uhorn" format="1">
  <advance width="576"/>
  <outline>
    <contour>
      <point x="518" y="443" type="line"/>
      <point x="611" y="464"/>
      <point x="652" y="528"/>
      <point x="652" y="608" type="curve" smooth="yes"/>
      <point x="652" y="630"/>
      <point x="646" y="662"/>
      <point x="636" y="684" type="curve"/>
      <point x="518" y="648" type="line"/>
      <point x="523" y="636"/>
      <point x="528" y="612"/>
      <point x="528" y="600" type="curve" smooth="yes"/>
      <point x="528" y="548"/>
      <point x="500" y="506"/>
      <point x="456" y="500" type="curve"/>
    </contour>
    <component base="u"/>
    <contour>
      <point x="332.0" y="522.0" type="move" name="aboveLC"/>
    </contour>
    <contour>
      <point x="250.0" y="-30.0" type="move" name="belowLC"/>
    </contour>
  </outline>
</glyph>
<glyph name="w.sups" format="1">
  <advance width="514"/>
  <outline>
    <contour>
      <point x="94" y="368" type="line"/>
      <point x="219" y="368" type="line"/>
      <point x="266" y="487" type="line"/>
      <point x="296" y="578" type="line"/>
      <point x="299" y="578" type="line"/>
      <point x="296" y="487" type="line"/>
      <point x="297" y="368" type="line"/>
      <point x="426" y="368" type="line"/>
      <point x="563" y="700" type="line"/>
      <point x="461" y="700" type="line"/>
      <point x="408" y="555" type="line"/>
      <point x="377" y="455" type="line"/>
      <point x="374" y="455" type="line"/>
      <point x="378" y="555" type="line"/>
      <point x="369" y="700" type="line"/>
      <point x="279" y="700" type="line"/>
      <point x="217" y="555" type="line"/>
      <point x="183" y="455" type="line"/>
      <point x="180" y="455" type="line"/>
      <point x="187" y="555" type="line"/>
      <point x="190" y="700" type="line"/>
      <point x="81" y="700" type="line"/>
    </contour>
  </outline>
</glyph>
<glyph name="x" format="1">
  <advance width="514"/>
  <outline>
    <contour>
      <point x="-38" y="0" type="line"/>
      <point x="133" y="0" type="line"/>
      <point x="179" y="76" type="line" smooth="yes"/>
      <point x="196" y="105"/>
      <point x="214" y="134"/>
      <point x="230" y="162" type="curve"/>
      <point x="234" y="162" type="line"/>
      <point x="243" y="134"/>
      <point x="251" y="104"/>
      <point x="260" y="76" type="curve" smooth="yes"/>
      <point x="286" y="0" type="line"/>
      <point x="450" y="0" type="line"/>
      <point x="360" y="232" type="line"/>
      <point x="552" y="500" type="line"/>
      <point x="382" y="500" type="line"/>
      <point x="344" y="423" type="line" smooth="yes"/>
      <point x="329" y="395"/>
      <point x="312" y="366"/>
      <point x="297" y="338" type="curve"/>
      <point x="293" y="338" type="line"/>
      <point x="286" y="366"/>
      <point x="278" y="395"/>
      <point x="271" y="423" type="curve"/>
      <point x="246" y="500" type="line"/>
      <point x="84" y="500" type="line"/>
      <point x="168" y="268" type="line"/>
    </contour>
    <contour>
      <point x="322" y="522" type="move" name="aboveLC"/>
    </contour>
    <contour>
      <point x="218" y="-22" type="move" name="belowLC"/>
    </contour>
  </outline>
</glyph>
<glyph name="y.sups" format="1">
  <advance width="349"/>
  <outline>
    <contour>
      <point x="74" y="236" type="curve" smooth="yes"/>
      <point x="146" y="236"/>
      <point x="190" y="279"/>
      <point x="232" y="353" type="curve" smooth="yes"/>
      <point x="408" y="700" type="line"/>
      <point x="302" y="700" type="line"/>
      <point x="238" y="549" type="line"/>
      <point x="197" y="448" type="line"/>
      <point x="195" y="448" type="line"/>
      <point x="194" y="549" type="line"/>
      <point x="183" y="700" type="line"/>
      <point x="75" y="700" type="line"/>
      <point x="130" y="361" type="line"/>
      <point x="124" y="348" type="line"/>
      <point x="115" y="332"/>
      <point x="98" y="322"/>
      <point x="71" y="322" type="curve" smooth="yes"/>
      <point x="62" y="322"/>
      <point x="52" y="324"/>
      <point x="42" y="328" type="curve"/>
      <point x="10" y="250" type="line"/>
      <point x="32" y="238"/>
      <point x="51" y="236"/>
    </contour>
  </outline>
</glyph>
<glyph name="z.sups" format="1">
  <advance width="307"/>
  <outline>
    <contour>
      <point x="27" y="368" type="line"/>
      <point x="290" y="368" type="line"/>
      <point x="306" y="454" type="line"/>
      <point x="183" y="454" type="line"/>
      <point x="338" y="637" type="line"/>
      <point x="351" y="700" type="line"/>
      <point x="105" y="700" type="line"/>
      <point x="89" y="614" type="line"/>
      <point x="195" y="614" type="line"/>
      <point x="39" y="429" type="line"/>
    </contour>
  </outline>
</glyph>
<glyph name="zero.0s" format="1">
  <advance width="520"/>
  <outline>
    <contour>
      <point x="303" y="134" type="line"/>
      <point x="413" y="134" type="line"/>
      <point x="245" y="504" type="line"/>
      <point x="135" y="504" type="line"/>
    </contour>
    <component base="zero"/>
  </outline>
</glyph>
